# xmcd
# 
# Track frame offsets:
#     150
#     19635
#     35973
#     53768
#     75532
#     90969
#     100291
#     116726
#     132564
#     140822
#     157011
#     175539
#     190522
#     203934
# 
# Disc length: 2992
# 
# Revision: 0
# Processed by: cddbd v1.5.2PL0 Copyright (c) Steve Scherf et al.
# Submitted via: fre:ac v1.0.31
# 
DISCID=bb0bae0e
DTITLE=Ensemble Grips Theater Berlin - Linie 1 - Das Musical
DYEAR=1986
DGENRE=Soundtrack
TTITLE0=6 Uhr 14 Bahnhof Zoo
TTITLE1=Du sitzt mir gegenüber
TTITLE2=Wenn die Liebe erwacht
TTITLE3=Du bist schön auch wenn du weinst
TTITLE4=Mut zum Träumen (Dare Imagine)
TTITLE5=Take the U-Bahn
TTITLE6=Fahr mal wieder U-Bahn
TTITLE7=Nachruf
TTITLE8=Warten
TTITLE9=Der Anmacher (Isn't he sweet)
TTITLE10=Tag ich hasse dich
TTITLE11=Wilmersdorfer Witwen
TTITLE12=Herrlich zu leben
TTITLE13=Bitte halt mich fest
EXTD=
EXTT0=
EXTT1=
EXTT2=
EXTT3=
EXTT4=
EXTT5=
EXTT6=
EXTT7=
EXTT8=
EXTT9=
EXTT10=
EXTT11=
EXTT12=
EXTT13=
PLAYORDER=
